<svg xmlns="http://www.w3.org/2000/svg" viewBox="0 0 32 32" width="32" height="32">
  <rect width="32" height="32" rx="7" fill="#047857" />
  <!-- Horns are strokes and the head is solid: at 16px a fully outlined goat
       turns to mush, but a filled silhouette still reads. The side ears are
       what stop it looking like an insect. -->
  <path
    d="M12.1 9.6C10.1 8 9.6 5.7 10.5 4"
    fill="none"
    stroke="#fff"
    stroke-width="2.4"
    stroke-linecap="round"
  />
  <path
    d="M19.9 9.6c2-1.6 2.5-3.9 1.6-5.6"
    fill="none"
    stroke="#fff"
    stroke-width="2.4"
    stroke-linecap="round"
  />
  <ellipse cx="7.8" cy="15.8" rx="3.6" ry="1.9" fill="#fff" transform="rotate(-14 7.8 15.8)" />
  <ellipse cx="24.2" cy="15.8" rx="3.6" ry="1.9" fill="#fff" transform="rotate(14 24.2 15.8)" />
  <path
    d="M16 8.7c3.9 0 6.1 2.5 6.1 6.2 0 4.4-2.6 8.2-6.1 8.2s-6.1-3.8-6.1-8.2c0-3.7 2.2-6.2 6.1-6.2Z"
    fill="#fff"
  />
  <circle cx="13.7" cy="15.1" r="1.25" fill="#047857" />
  <circle cx="18.3" cy="15.1" r="1.25" fill="#047857" />
</svg>
